  0
SECTION
  2
HEADER
  9
$ACADVER
  1
AC1009
  9
$INSBASE
 10
0.0
 20
0.0
 30
0.0
  9
$EXTMIN
 10
0.0
 20
0.0
 30
0.0
  9
$EXTMAX
 10
0.0
 20
0.0
 30
0.0
  0
ENDSEC
  0
SECTION
  2
TABLES
  0
TABLE
  2
VPORT
 70
0
  0
ENDTAB
  0
TABLE
  2
LTYPE
 70
1
  0
LTYPE
  2
CONTINUOUS
 70
0
  3
Solid line
 72
65
 73
0
 40
0.0
  0
ENDTAB
  0
TABLE
  2
LAYER
 70
1
  0
LAYER
  2
0
 70
64
 62
7
  6
continuous
  0
ENDTAB
  0
TABLE
  2
STYLE
 70
1
  0
STYLE
  2
STANDARD
 70
0
 40
0
 41
1.0
 50
0.0
 71
0
 42
1
 3
ARIAL.TTF
 4

  0
ENDTAB
  0
TABLE
  2
VIEW
 70
0
  0
ENDTAB
  0
ENDSEC
  0
SECTION
  2
BLOCKS
  0
ENDSEC
  0
SECTION
  2
ENTITIES
  0
CIRCLE
  8
0
 62
7
 10
-104.5
 20
104.5
 30
0.0
 40
1.6
  0
CIRCLE
  8
0
 62
7
 10
-8.75
 20
12.0
 30
0.0
 40
1.6
  0
CIRCLE
  8
0
 62
7
 10
104.5
 20
0.0
 30
0.0
 40
1.6
  0
CIRCLE
  8
0
 62
7
 10
104.5
 20
-104.5
 30
0.0
 40
1.6
  0
CIRCLE
  8
0
 62
7
 10
0.0
 20
104.5
 30
0.0
 40
1.6
  0
CIRCLE
  8
0
 62
7
 10
0.0
 20
-104.5
 30
0.0
 40
1.6
  0
CIRCLE
  8
0
 62
7
 10
-104.5
 20
0.0
 30
0.0
 40
1.6
  0
CIRCLE
  8
0
 62
7
 10
104.5
 20
104.5
 30
0.0
 40
1.6
  0
CIRCLE
  8
0
 62
7
 10
-104.5
 20
-104.5
 30
0.0
 40
1.6
  0
CIRCLE
  8
0
 62
7
 10
0.0
 20
0.0
 30
0.0
 40
1.6
  0
POLYLINE
  8
0
 62
7
 70
1
 66
1
 10
0.0
 20
0.0
 30
0.0
  0
VERTEX
  8
0
 10
-60.55
 20
-90.0
 30
0.0
  0
VERTEX
  8
0
 10
-32.45
 20
-90.0
 30
0.0
 42
2.41421356237
  0
VERTEX
  8
0
 10
-31.95
 20
-89.5
 30
0.0
  0
VERTEX
  8
0
 10
-31.95
 20
-80.5
 30
0.0
 42
2.41421356237
  0
VERTEX
  8
0
 10
-32.45
 20
-80.0
 30
0.0
  0
VERTEX
  8
0
 10
-60.55
 20
-80.0
 30
0.0
 42
2.41421356237
  0
VERTEX
  8
0
 10
-61.05
 20
-80.5
 30
0.0
  0
VERTEX
  8
0
 10
-61.05
 20
-89.5
 30
0.0
 42
2.41421356237
  0
SEQEND
  8
0
  0
POLYLINE
  8
0
 62
7
 70
1
 66
1
 10
0.0
 20
0.0
 30
0.0
  0
VERTEX
  8
0
 10
61.05
 20
-80.5
 30
0.0
  0
VERTEX
  8
0
 10
61.05
 20
-89.5
 30
0.0
 42
-2.41421356237
  0
VERTEX
  8
0
 10
60.55
 20
-90.0
 30
0.0
  0
VERTEX
  8
0
 10
32.45
 20
-90.0
 30
0.0
 42
-2.41421356237
  0
VERTEX
  8
0
 10
31.95
 20
-89.5
 30
0.0
  0
VERTEX
  8
0
 10
31.95
 20
-80.5
 30
0.0
 42
-2.41421356237
  0
VERTEX
  8
0
 10
32.45
 20
-80.0
 30
0.0
  0
VERTEX
  8
0
 10
60.55
 20
-80.0
 30
0.0
 42
-2.41421356237
  0
SEQEND
  8
0
  0
POLYLINE
  8
0
 62
7
 70
1
 66
1
 10
0.0
 20
0.0
 30
0.0
  0
VERTEX
  8
0
 10
-75.6819807823
 20
0.0
 30
0.0
  0
VERTEX
  8
0
 10
-75.6819807823
 20
67.572875708
 30
0.0
 42
-0.668178637919
  0
VERTEX
  8
0
 10
-67.1464468764
 20
71.1084096139
 30
0.0
  0
VERTEX
  8
0
 10
-17.4644660941
 20
21.4264288315
 30
0.0
 42
-0.19891236738
  0
VERTEX
  8
0
 10
-16.0
 20
17.8908949256
 30
0.0
  0
VERTEX
  8
0
 10
-16.0
 20
-4.26325641456e-14
 30
0.0
  0
VERTEX
  8
0
 10
-16.0
 20
-17.8908949256
 30
0.0
 42
-0.19891236738
  0
VERTEX
  8
0
 10
-17.4644660941
 20
-21.4264288315
 30
0.0
  0
VERTEX
  8
0
 10
-67.1464468764
 20
-71.1084096139
 30
0.0
 42
-0.668178637919
  0
VERTEX
  8
0
 10
-75.6819807823
 20
-67.572875708
 30
0.0
  0
SEQEND
  8
0
  0
POLYLINE
  8
0
 62
7
 70
1
 66
1
 10
0.0
 20
0.0
 30
0.0
  0
VERTEX
  8
0
 10
-61.05
 20
80.5
 30
0.0
  0
VERTEX
  8
0
 10
-61.05
 20
89.5
 30
0.0
 42
-2.41421356237
  0
VERTEX
  8
0
 10
-60.55
 20
90.0
 30
0.0
  0
VERTEX
  8
0
 10
-32.45
 20
90.0
 30
0.0
 42
-2.41421356237
  0
VERTEX
  8
0
 10
-31.95
 20
89.5
 30
0.0
  0
VERTEX
  8
0
 10
-31.95
 20
80.5
 30
0.0
 42
-2.41421356237
  0
VERTEX
  8
0
 10
-32.45
 20
80.0
 30
0.0
  0
VERTEX
  8
0
 10
-60.55
 20
80.0
 30
0.0
 42
-2.41421356237
  0
SEQEND
  8
0
  0
POLYLINE
  8
0
 62
7
 70
1
 66
1
 10
0.0
 20
0.0
 30
0.0
  0
VERTEX
  8
0
 10
60.55
 20
90.0
 30
0.0
  0
VERTEX
  8
0
 10
32.45
 20
90.0
 30
0.0
 42
2.41421356237
  0
VERTEX
  8
0
 10
31.95
 20
89.5
 30
0.0
  0
VERTEX
  8
0
 10
31.95
 20
80.5
 30
0.0
 42
2.41421356237
  0
VERTEX
  8
0
 10
32.45
 20
80.0
 30
0.0
  0
VERTEX
  8
0
 10
60.55
 20
80.0
 30
0.0
 42
2.41421356237
  0
VERTEX
  8
0
 10
61.05
 20
80.5
 30
0.0
  0
VERTEX
  8
0
 10
61.05
 20
89.5
 30
0.0
 42
2.41421356237
  0
SEQEND
  8
0
  0
POLYLINE
  8
0
 62
7
 70
1
 66
1
 10
0.0
 20
0.0
 30
0.0
  0
VERTEX
  8
0
 10
3.53553392723
 20
-20.225418726
 30
0.0
 42
0.19891236738
  0
VERTEX
  8
0
 10
-8.04061324714e-16
 20
-18.7609526834
 30
0.0
 42
0.19891236738
  0
VERTEX
  8
0
 10
-3.53553392723
 20
-20.225418726
 30
0.0
  0
VERTEX
  8
0
 10
-45.5423482482
 20
-62.232233047
 30
0.0
 42
0.668178637919
  0
VERTEX
  8
0
 10
-43.7745812952
 20
-66.5
 30
0.0
  0
VERTEX
  8
0
 10
-36.0
 20
-66.5
 30
0.0
 42
-0.284030086116
  0
VERTEX
  8
0
 10
-31.9754423839
 20
-68.9868094986
 30
0.0
  0
VERTEX
  8
0
 10
-26.7716716619
 20
-78.0000047802
 30
0.0
 42
0.267949192431
  0
VERTEX
  8
0
 10
-22.4415446429
 20
-80.5000047802
 30
0.0
  0
VERTEX
  8
0
 10
2.84217094304e-14
 20
-80.5000047802
 30
0.0
  0
VERTEX
  8
0
 10
22.4415446429
 20
-80.5000047802
 30
0.0
 42
0.267949192431
  0
VERTEX
  8
0
 10
26.7716716619
 20
-78.0000047802
 30
0.0
  0
VERTEX
  8
0
 10
31.9754423839
 20
-68.9868094986
 30
0.0
 42
-0.284030086116
  0
VERTEX
  8
0
 10
36.0
 20
-66.5
 30
0.0
  0
VERTEX
  8
0
 10
43.7745812952
 20
-66.5
 30
0.0
 42
0.668178637919
  0
VERTEX
  8
0
 10
45.5423482482
 20
-62.232233047
 30
0.0
  0
SEQEND
  8
0
  0
POLYLINE
  8
0
 62
7
 70
1
 66
1
 10
0.0
 20
0.0
 30
0.0
  0
VERTEX
  8
0
 10
75.6819807823
 20
0.0
 30
0.0
  0
VERTEX
  8
0
 10
75.6819807823
 20
67.572875708
 30
0.0
 42
0.668178637919
  0
VERTEX
  8
0
 10
67.1464468764
 20
71.1084096139
 30
0.0
  0
VERTEX
  8
0
 10
17.4644660941
 20
21.4264288315
 30
0.0
 42
0.19891236738
  0
VERTEX
  8
0
 10
16.0
 20
17.8908949256
 30
0.0
  0
VERTEX
  8
0
 10
16.0
 20
-4.26325641456e-14
 30
0.0
  0
VERTEX
  8
0
 10
16.0
 20
-17.8908949256
 30
0.0
 42
0.19891236738
  0
VERTEX
  8
0
 10
17.4644660941
 20
-21.4264288315
 30
0.0
  0
VERTEX
  8
0
 10
67.1464468764
 20
-71.1084096139
 30
0.0
 42
0.668178637919
  0
VERTEX
  8
0
 10
75.6819807823
 20
-67.572875708
 30
0.0
  0
SEQEND
  8
0
  0
POLYLINE
  8
0
 62
7
 70
1
 66
1
 10
0.0
 20
0.0
 30
0.0
  0
VERTEX
  8
0
 10
-78.9939033464
 20
89.5
 30
0.0
  0
VERTEX
  8
0
 10
-70.5674826559
 20
89.5
 30
0.0
 42
0.267949192431
  0
VERTEX
  8
0
 10
-66.237355637
 20
92.0
 30
0.0
  0
VERTEX
  8
0
 10
-60.8749156306
 20
101.288018544
 30
0.0
 42
-0.492566022778
  0
VERTEX
  8
0
 10
-53.7929224344
 20
102.156683939
 30
0.0
 42
0.428798341857
  0
VERTEX
  8
0
 10
-39.3052426506
 20
102.053747046
 30
0.0
 42
-0.50549155289
  0
VERTEX
  8
0
 10
-32.102885578
 20
101.249999818
 30
0.0
  0
VERTEX
  8
0
 10
-26.762395693
 20
92.0
 30
0.0
 42
0.267949192431
  0
VERTEX
  8
0
 10
-22.432268674
 20
89.5
 30
0.0
  0
VERTEX
  8
0
 10
-9.5
 20
89.5
 30
0.0
 42
0.414213562373
  0
VERTEX
  8
0
 10
-4.5
 20
94.5
 30
0.0
  0
VERTEX
  8
0
 10
-4.5
 20
104.5
 30
0.0
 42
-0.414213562373
  0
VERTEX
  8
0
 10
-1.6813848144e-14
 20
109.0
 30
0.0
 42
-0.414213562373
  0
VERTEX
  8
0
 10
4.5
 20
104.5
 30
0.0
  0
VERTEX
  8
0
 10
4.5
 20
94.5
 30
0.0
 42
0.414213562373
  0
VERTEX
  8
0
 10
9.5
 20
89.5
 30
0.0
  0
VERTEX
  8
0
 10
22.432268674
 20
89.5
 30
0.0
 42
0.267949192431
  0
VERTEX
  8
0
 10
26.762395693
 20
92.0
 30
0.0
  0
VERTEX
  8
0
 10
32.102885578
 20
101.249999818
 30
0.0
 42
-0.50549155289
  0
VERTEX
  8
0
 10
39.3052426506
 20
102.053747046
 30
0.0
 42
0.428798341857
  0
VERTEX
  8
0
 10
53.7929224344
 20
102.156683939
 30
0.0
 42
-0.492566022778
  0
VERTEX
  8
0
 10
60.8749156306
 20
101.288018544
 30
0.0
  0
VERTEX
  8
0
 10
66.237355637
 20
92.0
 30
0.0
 42
0.267949192431
  0
VERTEX
  8
0
 10
70.5674826559
 20
89.5
 30
0.0
  0
VERTEX
  8
0
 10
78.9939033464
 20
89.5
 30
0.0
 42
0.19891236738
  0
VERTEX
  8
0
 10
86.0649711582
 20
92.4289321881
 30
0.0
  0
VERTEX
  8
0
 10
101.318068822
 20
107.682029852
 30
0.0
 42
-0.999992205461
  0
VERTEX
  8
0
 10
107.681980782
 20
101.318019752
 30
0.0
  0
VERTEX
  8
0
 10
87.6109129705
 20
81.2469519398
 30
0.0
 42
0.19891236738
  0
VERTEX
  8
0
 10
84.6819807823
 20
74.1758841279
 30
0.0
  0
VERTEX
  8
0
 10
84.6819807823
 20
9.5
 30
0.0
 42
0.414213562373
  0
VERTEX
  8
0
 10
89.6819807823
 20
4.5
 30
0.0
  0
VERTEX
  8
0
 10
104.5
 20
4.5
 30
0.0
 42
-0.414213562373
  0
VERTEX
  8
0
 10
109.0
 20
1.59872115546e-14
 30
0.0
 42
-0.414213562373
  0
VERTEX
  8
0
 10
104.5
 20
-4.5
 30
0.0
  0
VERTEX
  8
0
 10
89.6819807823
 20
-4.5
 30
0.0
 42
0.414213562373
  0
VERTEX
  8
0
 10
84.6819807823
 20
-9.5
 30
0.0
  0
VERTEX
  8
0
 10
84.6819807823
 20
-74.1758841279
 30
0.0
 42
0.19891236738
  0
VERTEX
  8
0
 10
87.6109129705
 20
-81.2469519398
 30
0.0
  0
VERTEX
  8
0
 10
107.681980782
 20
-101.318019752
 30
0.0
 42
-0.999992205461
  0
VERTEX
  8
0
 10
101.318068822
 20
-107.682029852
 30
0.0
  0
VERTEX
  8
0
 10
86.0649711582
 20
-92.4289321881
 30
0.0
 42
0.19891236738
  0
VERTEX
  8
0
 10
78.9939033464
 20
-89.5
 30
0.0
  0
VERTEX
  8
0
 10
70.5674826559
 20
-89.5
 30
0.0
 42
0.267949192431
  0
VERTEX
  8
0
 10
66.237355637
 20
-92.0
 30
0.0
  0
VERTEX
  8
0
 10
60.8749156306
 20
-101.288018544
 30
0.0
 42
-0.492566022778
  0
VERTEX
  8
0
 10
53.7929224344
 20
-102.156683939
 30
0.0
 42
0.428798341857
  0
VERTEX
  8
0
 10
39.3052426506
 20
-102.053747046
 30
0.0
 42
-0.50549155289
  0
VERTEX
  8
0
 10
32.102885578
 20
-101.249999818
 30
0.0
  0
VERTEX
  8
0
 10
26.762395693
 20
-92.0
 30
0.0
 42
0.267949192431
  0
VERTEX
  8
0
 10
22.432268674
 20
-89.5
 30
0.0
  0
VERTEX
  8
0
 10
9.5
 20
-89.5
 30
0.0
 42
0.414213562373
  0
VERTEX
  8
0
 10
4.5
 20
-94.5
 30
0.0
  0
VERTEX
  8
0
 10
4.5
 20
-104.5
 30
0.0
 42
-0.414213562373
  0
VERTEX
  8
0
 10
2.75545529808e-16
 20
-109.0
 30
0.0
 42
-0.414213562373
  0
VERTEX
  8
0
 10
-4.5
 20
-104.5
 30
0.0
  0
VERTEX
  8
0
 10
-4.5
 20
-94.5
 30
0.0
 42
0.414213562373
  0
VERTEX
  8
0
 10
-9.5
 20
-89.5
 30
0.0
  0
VERTEX
  8
0
 10
-22.432268674
 20
-89.5
 30
0.0
 42
0.267949192431
  0
VERTEX
  8
0
 10
-26.762395693
 20
-92.0
 30
0.0
  0
VERTEX
  8
0
 10
-32.102885578
 20
-101.249999818
 30
0.0
 42
-0.50549155289
  0
VERTEX
  8
0
 10
-39.3052426506
 20
-102.053747046
 30
0.0
 42
0.428798341857
  0
VERTEX
  8
0
 10
-53.7929224344
 20
-102.156683939
 30
0.0
 42
-0.492566022778
  0
VERTEX
  8
0
 10
-60.8749156306
 20
-101.288018544
 30
0.0
  0
VERTEX
  8
0
 10
-66.237355637
 20
-92.0
 30
0.0
 42
0.267949192431
  0
VERTEX
  8
0
 10
-70.5674826559
 20
-89.5
 30
0.0
  0
VERTEX
  8
0
 10
-78.9939033464
 20
-89.5
 30
0.0
 42
0.19891236738
  0
VERTEX
  8
0
 10
-86.0649711582
 20
-92.4289321881
 30
0.0
  0
VERTEX
  8
0
 10
-101.318068822
 20
-107.682029852
 30
0.0
 42
-0.999992205461
  0
VERTEX
  8
0
 10
-107.681980782
 20
-101.318019752
 30
0.0
  0
VERTEX
  8
0
 10
-87.6109129705
 20
-81.2469519398
 30
0.0
 42
0.19891236738
  0
VERTEX
  8
0
 10
-84.6819807823
 20
-74.1758841279
 30
0.0
  0
VERTEX
  8
0
 10
-84.6819807823
 20
-9.5
 30
0.0
 42
0.414213562373
  0
VERTEX
  8
0
 10
-89.6819807823
 20
-4.5
 30
0.0
  0
VERTEX
  8
0
 10
-104.5
 20
-4.5
 30
0.0
 42
-0.414213562373
  0
VERTEX
  8
0
 10
-109.0
 20
1.34377190507e-14
 30
0.0
 42
-0.414213562373
  0
VERTEX
  8
0
 10
-104.5
 20
4.5
 30
0.0
  0
VERTEX
  8
0
 10
-89.6819807823
 20
4.5
 30
0.0
 42
0.414213562373
  0
VERTEX
  8
0
 10
-84.6819807823
 20
9.5
 30
0.0
  0
VERTEX
  8
0
 10
-84.6819807823
 20
74.1758841279
 30
0.0
 42
0.19891236738
  0
VERTEX
  8
0
 10
-87.6109129705
 20
81.2469519398
 30
0.0
  0
VERTEX
  8
0
 10
-107.681980782
 20
101.318019752
 30
0.0
 42
-0.999992205461
  0
VERTEX
  8
0
 10
-101.318068822
 20
107.682029852
 30
0.0
  0
VERTEX
  8
0
 10
-86.0649711582
 20
92.4289321881
 30
0.0
 42
0.19891236738
  0
SEQEND
  8
0
  0
POLYLINE
  8
0
 62
7
 70
1
 66
1
 10
0.0
 20
0.0
 30
0.0
  0
VERTEX
  8
0
 10
-3.53553392723
 20
20.225418726
 30
0.0
  0
VERTEX
  8
0
 10
-45.5423482482
 20
62.232233047
 30
0.0
 42
-0.668178637919
  0
VERTEX
  8
0
 10
-43.7745812952
 20
66.5
 30
0.0
  0
VERTEX
  8
0
 10
-36.0
 20
66.5
 30
0.0
 42
0.284030086116
  0
VERTEX
  8
0
 10
-31.9754423839
 20
68.9868094986
 30
0.0
  0
VERTEX
  8
0
 10
-26.7716716619
 20
78.0000047802
 30
0.0
 42
-0.267949192431
  0
VERTEX
  8
0
 10
-22.4415446429
 20
80.5000047802
 30
0.0
  0
VERTEX
  8
0
 10
2.84217094304e-14
 20
80.5000047802
 30
0.0
  0
VERTEX
  8
0
 10
22.4415446429
 20
80.5000047802
 30
0.0
 42
-0.267949192431
  0
VERTEX
  8
0
 10
26.7716716619
 20
78.0000047802
 30
0.0
  0
VERTEX
  8
0
 10
31.9754423839
 20
68.9868094986
 30
0.0
 42
0.284030086116
  0
VERTEX
  8
0
 10
36.0
 20
66.5
 30
0.0
  0
VERTEX
  8
0
 10
43.7745812952
 20
66.5
 30
0.0
 42
-0.668178637919
  0
VERTEX
  8
0
 10
45.5423482482
 20
62.232233047
 30
0.0
  0
VERTEX
  8
0
 10
3.53553392723
 20
20.225418726
 30
0.0
 42
-0.19891236738
  0
VERTEX
  8
0
 10
1.88737913922e-14
 20
18.7609526834
 30
0.0
 42
-0.19891236738
  0
SEQEND
  8
0
  0
CIRCLE
  8
0
 62
7
 10
-36.0
 20
-99.0
 30
0.0
 40
2.6
  0
CIRCLE
  8
0
 62
7
 10
-57.0
 20
99.0
 30
0.0
 40
2.6
  0
CIRCLE
  8
0
 62
7
 10
-57.0
 20
-99.0
 30
0.0
 40
2.6
  0
CIRCLE
  8
0
 62
7
 10
-36.0
 20
99.0
 30
0.0
 40
2.6
  0
CIRCLE
  8
0
 62
7
 10
36.0
 20
71.0
 30
0.0
 40
2.6
  0
CIRCLE
  8
0
 62
7
 10
-36.0
 20
71.0
 30
0.0
 40
2.6
  0
CIRCLE
  8
0
 62
7
 10
36.0
 20
99.0
 30
0.0
 40
2.6
  0
CIRCLE
  8
0
 62
7
 10
36.0
 20
-71.0
 30
0.0
 40
2.6
  0
CIRCLE
  8
0
 62
7
 10
-57.0
 20
71.0
 30
0.0
 40
2.6
  0
CIRCLE
  8
0
 62
7
 10
-57.0
 20
-71.0
 30
0.0
 40
2.6
  0
CIRCLE
  8
0
 62
7
 10
57.0
 20
71.0
 30
0.0
 40
2.6
  0
CIRCLE
  8
0
 62
7
 10
8.75
 20
12.0
 30
0.0
 40
1.6
  0
CIRCLE
  8
0
 62
7
 10
8.75
 20
-12.0
 30
0.0
 40
1.6
  0
CIRCLE
  8
0
 62
7
 10
-36.0
 20
-71.0
 30
0.0
 40
2.6
  0
CIRCLE
  8
0
 62
7
 10
57.0
 20
99.0
 30
0.0
 40
2.6
  0
CIRCLE
  8
0
 62
7
 10
57.0
 20
-99.0
 30
0.0
 40
2.6
  0
CIRCLE
  8
0
 62
7
 10
36.0
 20
-99.0
 30
0.0
 40
2.6
  0
CIRCLE
  8
0
 62
7
 10
-8.75
 20
-12.0
 30
0.0
 40
1.6
  0
CIRCLE
  8
0
 62
7
 10
57.0
 20
-71.0
 30
0.0
 40
2.6
  0
ENDSEC
  0
EOF
